# xmcd CD database file
#
# Track frame offsets:
#	150
#	13187
#	26010
#	39567
#	55245
#	67370
#	83822
#	100337
#	113905
#	128065
#	139452
#	152162
#
# Disc length: 2198 seconds
#
# Revision: 2
# Processed by: cddbd v1.5.2PL0 Copyright (c) Steve Scherf et al.
# Submitted via: CDex 1.70beta2
#
DISCID=ac08940c
DTITLE=Vasilis Karras - Den Pao Pouthena
DYEAR=1992
DGENRE=World Music
TTITLE0=Pou Pas
TTITLE1=Allothi
TTITLE2=Den Pao Pouthena
TTITLE3=Tipota Tipota
TTITLE4=Arage
TTITLE5=Kryvese
TTITLE6=Den Perna Auti I Nixta
TTITLE7=An Yirisis Piso Kai Dis
TTITLE8=Me Ta Rouxa Kimame
TTITLE9=Me Pirazei
TTITLE10=Den Mporei Na Me Ksexasei
TTITLE11=Na To Sizitisoume
EXTD=YEAR: 1992
EXTT0=
EXTT1=
EXTT2=
EXTT3=
EXTT4=
EXTT5=
EXTT6=
EXTT7=
EXTT8=
EXTT9=
EXTT10=
EXTT11=
PLAYORDER=
